# xmcd CD database file
#
# Track frame offsets:
#	150
#	9585
#	20956
#	31354
#	42221
#	51142
#	63589
#	74595
#	83905
#	92280
#	100619
#	117166
#
# Disc length: 1701 seconds
#
# Revision: 1
# Processed by: cddbd v1.5.2PL0 Copyright (c) Steve Scherf et al.
# Submitted via: CDex 1.51
#
DISCID=9806a30c
DTITLE=Johnny Cash - My Amercia - Best Of Vol. 2 - CD2
DYEAR=2009
DGENRE=Country
TTITLE0=It Was Jesus
TTITLE1=I Saw A Man
TTITLE2=God Will
TTITLE3=When I Take My Vacation In Heaven
TTITLE4=My God Is Real (Yes, God Is Real)
TTITLE5=When I've Learned
TTITLE6=Lead Me Father
TTITLE7=I Talk To Jesus Every Day
TTITLE8=Swing Low, Sweet Chariot
TTITLE9=Taller Than Trees
TTITLE10=Jesus Was A Carpenter
TTITLE11=Snow In His Hair
EXTD=YEAR: 2009
EXTT0=
EXTT1=
EXTT2=
EXTT3=
EXTT4=
EXTT5=
EXTT6=
EXTT7=
EXTT8=
EXTT9=
EXTT10=
EXTT11=
PLAYORDER=
